PathFileType	4	(X/Y/Z)	C:\Users\Basilio\Documents\Thesis Gigler\squatting_fais\c3dfiles\076\SLS_front_pre1\markers_experimental.trc
DataRate	CameraRate	NumFrames	NumMarkers	Units	OrigDataRate	OrigDataStartFrame	OrigNumFrames
200.000000	200.000000	4	61	mm	200.000000	1354	1548
Frame#	Time	FHD			LBHD			RBHD			C7			T10			CLAV			LSHO			LUUPA			LMUPA			LDUPA			LLEP			LMEP			LRAD			LUL			LRFIN			RSHO			RUPA1			RMUPA			RDUPA			RLEP			RMEP			RRAD			RUL			RUFIN			LASI			RASI			USACR			LSACR			RSACR			LTHI1			LTHI2			LTHI3			LTHI4			LLFC			LMFC			LTIB1			LTIB2			LTIB3			LTIB4			LLMAL			LMMAL			LHEE			LMT1			LMT2			LMT5			RTHI			RTHI2			RTHI3			RTHI4			RLFC			RMFC			RTIB1			RTIB2			RTIB3			RTIB4			RLMAL			RMMAL			RHEE			RMT1			RMT2			RMT5			
		X1	Y1	Z1	X2	Y2	Z2	X3	Y3	Z3	X4	Y4	Z4	X5	Y5	Z5	X6	Y6	Z6	X7	Y7	Z7	X8	Y8	Z8	X9	Y9	Z9	X10	Y10	Z10	X11	Y11	Z11	X12	Y12	Z12	X13	Y13	Z13	X14	Y14	Z14	X15	Y15	Z15	X16	Y16	Z16	X17	Y17	Z17	X18	Y18	Z18	X19	Y19	Z19	X20	Y20	Z20	X21	Y21	Z21	X22	Y22	Z22	X23	Y23	Z23	X24	Y24	Z24	X25	Y25	Z25	X26	Y26	Z26	X27	Y27	Z27	X28	Y28	Z28	X29	Y29	Z29	X30	Y30	Z30	X31	Y31	Z31	X32	Y32	Z32	X33	Y33	Z33	X34	Y34	Z34	X35	Y35	Z35	X36	Y36	Z36	X37	Y37	Z37	X38	Y38	Z38	X39	Y39	Z39	X40	Y40	Z40	X41	Y41	Z41	X42	Y42	Z42	X43	Y43	Z43	X44	Y44	Z44	X45	Y45	Z45	X46	Y46	Z46	X47	Y47	Z47	X48	Y48	Z48	X49	Y49	Z49	X50	Y50	Z50	X51	Y51	Z51	X52	Y52	Z52	X53	Y53	Z53	X54	Y54	Z54	X55	Y55	Z55	X56	Y56	Z56	X57	Y57	Z57	X58	Y58	Z58	X59	Y59	Z59	X60	Y60	Z60	X61	Y61	Z61	

1355	6.77	-170.0360107421875	1568.521606445313	-944.737487792969	-260.5011291503907	1585.5947265625	-1103.687622070313	-320.3194274902344	1579.889526367188	-962.7479248046877	-393.5284118652345	1465.632080078125	-1049.424194335938	-423.7277221679689	1135.977294921875	-1058.448120117188	-270.4677734375001	1374.115844726563	-1040.614013671875	-327.8175048828126	1398.673828125	-1223.414672851563	-320.6868591308594	1199.748291015625	-1297.40673828125	-284.3219299316407	1174.076293945313	-1275.439331054688	-313.3608093261719	1132.843627929688	-1311.004028320313	-324.4665222167969	1076.725830078125	-1315.677490234375	-350.8835754394532	1055.33251953125	-1241.923583984375	-196.5704498291016	863.143493652344	-1309.821411132813	-243.3325805664063	850.6731567382815	-1352.741577148438	-163.1214141845703	786.3672485351565	-1339.739624023438	-347.6736755371094	1383.276611328125	-875.3424072265627	-380.7574157714844	1183.257202148438	-805.833190917969	-336.4130859375001	1161.870483398438	-802.8249511718752	-373.8751220703126	1113.279663085938	-801.3803710937502	-357.2751464843751	1049.631713867188	-798.7580566406252	-351.6659545898438	1037.446655273438	-879.9483642578127	-212.2521209716797	849.0166015625002	-797.5559692382815	-271.0762939453126	831.4769287109377	-770.795349121094	-186.4055480957032	786.8269042968752	-755.8005371093751	-255.5538024902344	947.1768798828127	-1141.811401367188	-264.2075195312501	972.9442138671877	-924.9272460937502	-425.0205688476564	1027.79541015625	-1047.417846679688	-429.6118164062501	996.982604980469	-1072.53564453125	-435.6970520019532	1002.024230957031	-1015.973937988281	-344.9327392578126	789.717956542969	-1188.810791015625	-323.2063903808594	708.5006713867189	-1179.785522460938	-274.7710876464844	707.1162109375001	-1170.419677734375	-356.8385314941407	661.0277099609376	-1161.744995117188	-369.2466735839844	502.0518798828126	-1124.84326171875	-331.3908081054688	503.128631591797	-1010.545959472656	-330.1357727050782	365.6468505859376	-1047.861694335938	-355.1056823730469	307.0547790527344	-1108.837036132813	-323.5056152343751	313.6033020019532	-1074.097900390625	-333.1675109863282	239.0812683105469	-1035.050659179688	-384.4209899902345	106.7611236572266	-1073.289184570313	-356.7471313476563	125.7492218017578	-996.4110107421877	-442.7333068847657	96.92627716064456	-1022.917602539063	-240.4575805664063	54.11776733398439	-1005.890747070313	-235.4505462646485	49.16353225708009	-1044.484375	-257.9817199707032	42.17057037353516	-1094.011352539063	-291.4710083007813	729.6165161132814	-832.0250244140627	-241.2476348876954	684.4609985351564	-826.2121582031252	-209.3875885009766	692.7244262695314	-837.170837402344	-251.2641296386719	602.2919921875001	-828.676696777344	-239.9740142822266	546.1473388671876	-825.0716552734377	-222.8527221679688	527.6307373046876	-940.6709594726565	-211.3586730957032	407.1064453125001	-829.0894775390627	-287.3980407714844	343.2753295898438	-784.020935058594	-244.4139556884766	332.0412902832032	-800.1398925781252	-244.4035949707032	280.9653625488282	-829.2075805664065	-319.5045776367188	158.0957641601563	-767.6530761718751	-310.3035278320313	159.7236022949219	-854.0275878906252	-387.3297424316407	146.7198181152344	-798.9575195312502	-207.4633483886719	64.44969940185548	-854.815368652344	-189.0233306884766	73.25160980224611	-813.2454223632815	-208.1958007812501	67.58187103271486	-754.4880371093751	
1356	6.775	-169.59326171875	1568.064331054688	-943.7847290039065	-259.3083801269532	1585.46484375	-1103.06298828125	-319.8231811523438	1579.79833984375	-962.3964843750002	-393.0355529785157	1465.759887695313	-1049.330688476563	-423.6012573242189	1136.126098632813	-1058.388427734375	-270.0899963378907	1374.035522460938	-1040.235473632813	-326.7910766601563	1398.721557617188	-1223.076904296875	-319.4776611328126	1199.835571289063	-1297.208374023438	-282.9580078125001	1174.154907226563	-1274.8984375	-312.1807861328126	1132.912353515625	-1310.729858398438	-323.5162658691407	1076.786254882813	-1315.473754882813	-349.5090332031251	1055.408447265625	-1241.678833007813	-194.6131134033204	863.5523681640627	-1309.043090820313	-241.3058166503907	850.825866699219	-1351.88623046875	-160.6009368896485	787.269470214844	-1338.91455078125	-347.7565002441407	1383.26123046875	-875.1323242187502	-381.1490783691407	1183.229736328125	-805.7496337890627	-336.8210754394532	1161.83447265625	-802.7253417968752	-374.1980590820313	1113.216430664063	-801.4329223632815	-357.7866821289063	1049.522583007813	-798.7371826171877	-352.1908264160157	1037.409790039063	-879.951354980469	-212.4124450683594	849.1880493164065	-797.8493652343752	-271.2533874511719	831.367126464844	-771.0865478515627	-185.9534759521485	787.396423339844	-756.1665649414064	-255.4607543945313	947.1865234375002	-1141.424072265625	-264.3083801269532	972.8748779296877	-924.5228271484377	-425.084442138672	1027.952758789063	-1047.33056640625	-429.6688842773439	997.0725097656252	-1072.445068359375	-435.7498168945314	1002.184631347656	-1015.881469726563	-344.6388854980469	789.576354980469	-1188.510009765625	-323.1383361816407	708.5900878906251	-1179.5751953125	-274.7145080566407	707.1787719726564	-1170.203247070313	-356.6643371582032	660.9576416015626	-1161.564086914063	-369.1770935058594	502.0437316894532	-1124.69482421875	-331.4709472656251	503.1135864257814	-1010.384826660156	-330.0828247070313	365.6571350097657	-1047.77978515625	-355.0502929687501	307.0964050292969	-1108.811279296875	-323.5633239746094	313.6742248535157	-1074.006103515625	-333.1750488281251	239.0983428955079	-1035.02099609375	-384.6059570312501	106.7795562744141	-1073.353393554688	-356.7169189453126	125.7640380859375	-996.4375000000002	-442.4527282714845	96.79563903808597	-1022.86962890625	-240.4718322753907	54.1178436279297	-1005.891235351563	-235.0182495117188	48.97885513305665	-1044.283935546875	-258.0012817382813	42.15840911865235	-1094.023681640625	-292.5461120605469	729.6712646484376	-831.3396606445315	-242.3578643798829	684.3607177734376	-825.330261230469	-210.7584686279297	692.3811645507814	-836.0244750976565	-252.6275787353516	602.2951049804689	-827.6626586914065	-241.6682281494141	545.9992675781251	-823.9260253906252	-224.1443176269532	527.4176635742189	-939.3962402343752	-213.3994598388672	407.0010375976564	-827.6962890625002	-289.8775024414063	343.4516601562501	-782.6099853515627	-246.8243865966797	331.8947753906251	-798.866882324219	-246.9163208007813	280.9927673339844	-827.731384277344	-322.5909118652344	158.222396850586	-766.2164306640626	-313.0294494628907	159.7822265625	-852.5503540039065	-390.0871582031251	146.9576721191407	-797.689880371094	-210.0475158691407	64.2185745239258	-852.8337402343752	-191.7319793701172	73.04898071289064	-811.2569580078127	-211.4800720214844	67.70921325683595	-752.4428710937501	
1357	6.78	-169.1802062988282	1567.608032226563	-942.8838500976565	-258.4164733886719	1585.379516601563	-1102.464477539063	-319.3308410644532	1579.6826171875	-961.9129028320315	-392.4537048339845	1465.832397460938	-1049.155395507813	-423.5189514160157	1136.238891601563	-1058.318725585938	-269.6719360351563	1373.88525390625	-1039.800415039063	-325.8103027343751	1398.771240234375	-1222.681396484375	-318.3483276367188	1199.953125	-1297.029418945313	-281.9397277832032	1174.3564453125	-1274.609497070313	-311.0717163085938	1132.993286132813	-1310.471069335938	-321.9284973144532	1076.91748046875	-1315.294677734375	-348.5563659667969	1055.418823242188	-1241.653930664063	-192.6322479248047	864.2097167968752	-1308.23291015625	-239.3730773925782	851.043884277344	-1351.009887695313	-158.1444549560547	788.2290039062502	-1338.083129882813	-347.7841186523438	1383.24169921875	-874.8992309570315	-381.5606384277344	1183.165405273438	-805.6590576171877	-337.2720336914063	1161.736083984375	-802.601257324219	-374.6775207519532	1113.178466796875	-801.408630371094	-358.2658996582032	1049.472290039063	-798.7358398437502	-352.7520751953126	1037.228149414063	-880.0784301757815	-212.6620635986329	849.2419433593752	-798.216979980469	-271.4438476562501	831.2692871093752	-771.380310058594	-186.106689453125	787.1359863281252	-756.8292846679689	-255.4796295166016	947.1401977539065	-1141.0615234375	-265.0364074707032	972.906188964844	-924.5653076171877	-425.0955810546876	1027.935913085938	-1047.207397460938	-429.6787109375001	997.1672363281252	-1072.353271484375	-435.8499145507814	1002.213500976563	-1015.839111328125	-343.6618652343751	789.4580078125002	-1188.130859375	-323.0722961425782	708.5993652343751	-1179.394897460938	-274.4251098632813	707.2251586914064	-1169.855346679688	-356.4967651367188	660.9449462890626	-1161.410278320313	-369.0066833496094	502.114715576172	-1124.617065429688	-331.5816345214844	503.0880126953126	-1010.23046875	-330.1250000000001	365.6705017089844	-1047.678344726563	-354.9940795898438	307.1515502929688	-1108.774780273438	-323.5417785644532	313.7205200195313	-1073.932861328125	-333.2341308593751	239.0678710937501	-1034.96923828125	-384.527557373047	106.7615585327149	-1073.3662109375	-356.7332153320313	125.7674636840821	-996.4869384765627	-442.4500732421876	96.78921508789065	-1022.885925292969	-240.4800720214844	54.15510940551759	-1005.898559570313	-235.4453125000001	49.18247222900392	-1044.491821289063	-257.9536743164063	42.12155914306641	-1094.008056640625	-293.5739746093751	729.8081665039064	-830.623962402344	-243.8531494140626	684.5452880859376	-824.1976318359377	-211.6470184326172	692.4086914062501	-835.2319946289065	-253.9982910156251	602.2616577148439	-826.7353515625002	-243.2344818115235	545.9477539062501	-822.9160766601565	-226.0127105712891	527.4133911132814	-938.4595947265627	-215.6348724365235	406.8714904785157	-826.5388183593752	-292.1582336425782	343.5653381347657	-781.4221191406252	-249.0991821289063	331.8722839355469	-797.4876708984377	-249.2935333251954	280.9252014160157	-826.3480224609377	-325.5234375000001	158.5272979736328	-764.8081665039064	-315.7760314941407	160.0779418945313	-851.0449829101565	-392.6742248535157	146.9312744140625	-796.835876464844	-213.2326049804688	64.46358489990236	-850.8874511718752	-194.6715393066407	73.42324066162111	-808.9407348632815	-214.7226257324219	67.56536865234376	-750.4930419921876	
1358	6.785	-168.8048553466797	1567.166015625	-941.9984130859377	-257.4226684570313	1585.326904296875	-1101.898193359375	-318.9214782714844	1579.552368164063	-961.4265747070315	-391.8508300781251	1465.944091796875	-1048.9873046875	-423.3474731445314	1136.411254882813	-1058.236206054688	-268.5492858886719	1373.7001953125	-1039.019775390625	-324.8515014648438	1398.734008789063	-1222.280639648438	-317.1195678710938	1200.00537109375	-1296.789916992188	-281.0430297851563	1174.389892578125	-1274.321533203125	-309.8528442382813	1133.283813476563	-1310.314453125	-320.4201965332032	1076.99853515625	-1315.101440429688	-347.7611694335938	1055.514526367188	-1241.609252929688	-190.5949249267578	864.7121582031252	-1307.385620117188	-237.2659301757813	851.146667480469	-1350.12255859375	-155.5622863769532	789.117126464844	-1336.957641601563	-347.8045043945313	1383.280029296875	-874.6600341796877	-381.9483032226563	1183.10400390625	-805.546081542969	-337.6403503417969	1161.743286132813	-802.5317993164065	-375.3289489746094	1113.0400390625	-801.2673950195315	-358.7870178222657	1049.428955078125	-798.764343261719	-353.2588500976563	1037.200805664063	-879.8651123046877	-212.9958496093751	849.2346801757815	-798.6652832031252	-271.7365112304688	831.223815917969	-771.800231933594	-186.1844635009766	787.0537109375002	-757.4843139648439	-255.4118041992188	947.132751464844	-1140.661987304688	-265.2696838378907	972.8694458007815	-924.2426757812502	-425.0931091308595	1028.065795898438	-1047.084106445313	-429.6517944335939	997.3077392578127	-1072.2431640625	-435.9465637207032	1002.335388183594	-1015.692749023438	-343.5795898437501	789.423034667969	-1188.029663085938	-322.9428405761719	708.6483154296876	-1179.186279296875	-275.0610656738282	707.3621826171876	-1170.047119140625	-356.3512878417969	660.9679565429689	-1161.298828125	-369.0226135253907	502.0808410644532	-1124.48828125	-331.6966857910157	503.097381591797	-1010.123901367188	-330.5011901855469	365.9008178710938	-1047.689086914063	-354.9491882324219	307.2165832519532	-1108.734619140625	-323.5266723632813	313.7935791015626	-1073.955078125	-333.2462158203126	239.0708923339844	-1034.91064453125	-384.5413818359376	106.7896347045899	-1073.3955078125	-356.7535705566407	125.7770462036133	-996.4995117187502	-442.4602661132814	96.80648040771487	-1022.919311523438	-240.4884490966797	54.13308715820314	-1005.8916015625	-235.0221557617188	48.99849319458009	-1044.278076171875	-257.9087524414063	42.09857177734376	-1093.999877929688	-294.6744384765626	729.8615722656251	-829.9470214843752	-245.1766357421876	684.5476684570314	-823.437683105469	-212.8850402832032	692.2255249023439	-834.254577636719	-255.4143218994141	602.2156372070314	-825.7114257812502	-244.8742980957032	545.9313354492189	-821.7253417968752	-227.5642852783204	527.0307006835939	-937.3596191406252	-217.632553100586	406.3702697753907	-825.334655761719	-294.3722534179688	343.7330932617188	-780.2779541015627	-251.5016784667969	331.7741699218751	-796.160827636719	-251.5664520263672	280.9264526367188	-824.8027343750002	-328.3903503417969	158.7522125244141	-763.4335937500001	-317.8018493652344	160.0147094726563	-849.715026855469	-395.6904602050782	147.4356536865235	-795.6718750000002	-215.5866088867188	64.08352661132814	-848.8819580078127	-197.5509948730469	72.9817581176758	-807.277282714844	-217.8856201171876	67.63542938232423	-748.5755615234376	
